<?xml version="1.0" standalone="no"?>
<!DOCTYPE svg PUBLIC "-//W3C//DTD SVG 20010904//EN"
 "http://www.w3.org/TR/2001/REC-SVG-20010904/DTD/svg10.dtd">
<svg version="1.0" xmlns="http://www.w3.org/2000/svg"
 width="100.000000pt" height="100.000000pt" viewBox="0 0 100.000000 100.000000"
 preserveAspectRatio="xMidYMid meet">

<g transform="translate(0.000000,100.000000) scale(0.100000,-0.100000)"
fill="#000000" stroke="none">
<path d="M180 939 c-44 -22 -72 -45 -94 -76 -45 -64 -54 -97 -55 -193 l-1 -84
45 44 c34 33 45 52 45 75 0 37 30 104 58 128 46 42 83 46 400 47 l302 0 0 -93
0 -93 45 -44 45 -44 0 182 0 182 -363 0 -364 0 -63 -31z"/>
<path d="M152 607 l-122 -122 0 -120 0 -120 185 185 185 185 -57 57 c-32 32
-60 58 -63 58 -3 0 -60 -55 -128 -123z"/>
<path d="M302 437 l-272 -272 0 -68 0 -67 53 0 52 0 280 280 280 280 -60 60
-60 60 -273 -273z"/>
<path d="M535 340 l-310 -310 120 0 120 0 250 250 250 250 -60 60 -60 60 -310
-310z"/>
<path d="M923 398 c-36 -38 -41 -50 -46 -102 -7 -67 -43 -128 -90 -153 -17 -8
-56 -18 -88 -20 -52 -5 -62 -10 -100 -49 l-43 -44 96 0 c147 0 235 45 284 147
23 46 28 72 32 159 3 57 3 104 0 104 -2 0 -22 -19 -45 -42z"/>
</g>
</svg>
