<svg width="97" height="23" viewBox="0 0 97 23" fill="none" xmlns="http://www.w3.org/2000/svg">
<g clip-path="url(#clip0_1_295)">
<path fill-rule="evenodd" clip-rule="evenodd" d="M4.6087 9.3088C5.57343 9.53913 6.74147 9.6739 8 9.6739C9.25853 9.6739 10.4266 9.53913 11.3913 9.3088C12.3048 9.09073 13.3322 8.5777 13.7854 8.2216L8.28287 17.0464C8.15237 17.2557 7.84763 17.2557 7.71713 17.0464L2.21458 8.2216C2.66777 8.5777 3.6952 9.09073 4.6087 9.3088Z" fill="#0D141C"/>
<path fill-rule="evenodd" clip-rule="evenodd" d="M13.3327 7.57867C13.3315 7.58457 13.3292 7.59483 13.3249 7.6098C13.3145 7.64663 13.2983 7.69137 13.2782 7.73917C13.2723 7.75323 13.2663 7.7669 13.2604 7.77993C12.8368 8.07043 11.9929 8.47977 11.2365 8.66037C10.3292 8.877 9.21377 9.00723 8 9.00723C6.78623 9.00723 5.67083 8.877 4.7635 8.66037C4.0004 8.4782 3.14835 8.06323 2.72846 7.77227C2.72461 7.76417 2.72072 7.75567 2.71684 7.74693C2.69973 7.7083 2.68574 7.67047 2.67659 7.637C2.66785 7.60507 2.6668 7.5889 2.66668 7.58707C2.66667 7.5869 2.66668 7.587 2.66668 7.58707C2.66668 7.57863 2.67013 7.47443 2.89495 7.28953C3.11515 7.10847 3.47407 6.91563 3.97637 6.74092C4.97473 6.39366 6.3973 6.16667 8 6.16667C9.6027 6.16667 11.0253 6.39366 12.0236 6.74092C12.5259 6.91563 12.8848 7.10847 13.105 7.28953C13.3002 7.45003 13.3286 7.54963 13.3327 7.57867ZM1.65059 8.57707L7.15143 17.3991C7.54293 18.027 8.45707 18.027 8.84857 17.3991L14.3511 8.57433C14.357 8.56493 14.3626 8.5554 14.368 8.5457L13.7854 8.2216C14.368 8.5457 14.3679 8.5458 14.368 8.5457L14.3684 8.545L14.3688 8.54417L14.37 8.54203L14.3733 8.53607C14.3759 8.53133 14.3792 8.52513 14.3832 8.51757C14.3913 8.5025 14.4021 8.48183 14.4147 8.4567C14.4397 8.40693 14.4732 8.337 14.5072 8.2561C14.5634 8.12263 14.6667 7.8563 14.6667 7.58697C14.6667 7.0191 14.3343 6.57418 13.9519 6.2597C13.5649 5.94142 13.0451 5.68454 12.4617 5.48159C11.2885 5.07352 9.711 4.83333 8 4.83333C6.289 4.83333 4.71153 5.07352 3.53833 5.48159C2.95488 5.68454 2.4351 5.94143 2.04806 6.2597C1.66565 6.57418 1.33333 7.0191 1.33333 7.58697C1.33333 7.87583 1.43088 8.13593 1.49774 8.2869C1.53458 8.37007 1.57116 8.43987 1.59896 8.48963C1.61299 8.5148 1.62516 8.5355 1.6345 8.55097C1.63918 8.55873 1.64318 8.56523 1.64639 8.57037L1.64887 8.57433L1.65059 8.57707ZM11.9956 9.832L8 16.24L4.00437 9.832C4.15537 9.8797 4.30597 9.92193 4.4539 9.95727C5.47603 10.2013 6.6967 10.3406 8 10.3406C9.3033 10.3406 10.524 10.2013 11.5461 9.95727C11.694 9.92193 11.8446 9.8797 11.9956 9.832Z" fill="#0D141C"/>
</g>
<path d="M42.548 9.764H36.41V12.284H41.306V14.678H36.41V19.25H33.314V7.37H42.548V9.764ZM45.378 9.206C44.754 9.206 44.298 9.092 44.01 8.864C43.734 8.624 43.596 8.252 43.596 7.748C43.596 7.232 43.734 6.86 44.01 6.632C44.298 6.392 44.754 6.272 45.378 6.272C45.99 6.272 46.44 6.392 46.728 6.632C47.016 6.86 47.16 7.232 47.16 7.748C47.16 8.252 47.016 8.624 46.728 8.864C46.44 9.092 45.99 9.206 45.378 9.206ZM46.908 10.25V19.25H43.848V10.25H46.908ZM48.8168 19.25V10.25H51.5528L51.7148 13.346L51.3728 13.004C51.4928 12.356 51.7028 11.816 52.0028 11.384C52.3148 10.952 52.6988 10.628 53.1548 10.412C53.6228 10.184 54.1448 10.07 54.7208 10.07C55.3448 10.07 55.8848 10.19 56.3408 10.43C56.8088 10.67 57.1748 11.024 57.4388 11.492C57.7028 11.96 57.8348 12.548 57.8348 13.256V19.25H54.7748V14.066C54.7748 13.442 54.6548 13.01 54.4148 12.77C54.1748 12.53 53.8688 12.41 53.4968 12.41C53.2088 12.41 52.9388 12.482 52.6868 12.626C52.4348 12.758 52.2368 12.974 52.0928 13.274C51.9488 13.574 51.8768 13.976 51.8768 14.48V19.25H48.8168ZM70.4221 15.848C70.1941 16.676 69.8281 17.36 69.3241 17.9C68.8201 18.428 68.2201 18.818 67.5241 19.07C66.8281 19.31 66.0601 19.43 65.2201 19.43C64.0201 19.43 62.9821 19.19 62.1061 18.71C61.2301 18.218 60.5581 17.516 60.0901 16.604C59.6221 15.692 59.3881 14.594 59.3881 13.31C59.3881 12.026 59.6221 10.928 60.0901 10.016C60.5581 9.104 61.2301 8.408 62.1061 7.928C62.9821 7.436 64.0141 7.19 65.2021 7.19C66.0301 7.19 66.7921 7.31 67.4881 7.55C68.1841 7.778 68.7721 8.132 69.2521 8.612C69.7321 9.092 70.0741 9.71 70.2781 10.466L67.5601 11.564C67.3921 10.82 67.1161 10.31 66.7321 10.034C66.3601 9.758 65.8861 9.62 65.3101 9.62C64.7461 9.62 64.2541 9.758 63.8341 10.034C63.4261 10.31 63.1081 10.724 62.8801 11.276C62.6641 11.816 62.5561 12.494 62.5561 13.31C62.5561 14.114 62.6581 14.792 62.8621 15.344C63.0661 15.896 63.3721 16.31 63.7801 16.586C64.2001 16.862 64.7161 17 65.3281 17C65.9041 17 66.3901 16.844 66.7861 16.532C67.1941 16.208 67.4701 15.716 67.6141 15.056L70.4221 15.848ZM76.6981 13.544C76.6981 13.124 76.5781 12.794 76.3381 12.554C76.1101 12.302 75.7981 12.176 75.4021 12.176C75.0061 12.176 74.6641 12.278 74.3761 12.482C74.1001 12.674 73.9081 13.022 73.8001 13.526L71.2081 12.914C71.3761 12.05 71.8201 11.36 72.5401 10.844C73.2601 10.328 74.2741 10.07 75.5821 10.07C76.4581 10.07 77.2021 10.202 77.8141 10.466C78.4381 10.718 78.9121 11.102 79.2361 11.618C79.5721 12.122 79.7401 12.746 79.7401 13.49V16.784C79.7401 17.252 79.9501 17.486 80.3701 17.486C80.5861 17.486 80.7601 17.462 80.8921 17.414L80.7121 19.16C80.3521 19.328 79.9141 19.412 79.3981 19.412C78.9301 19.412 78.5161 19.34 78.1561 19.196C77.7961 19.04 77.5141 18.812 77.3101 18.512C77.1061 18.2 77.0041 17.81 77.0041 17.342V17.234L77.3461 17.108C77.3461 17.624 77.1901 18.056 76.8781 18.404C76.5781 18.752 76.1821 19.01 75.6901 19.178C75.2101 19.346 74.7061 19.43 74.1781 19.43C73.5661 19.43 73.0321 19.334 72.5761 19.142C72.1201 18.95 71.7661 18.674 71.5141 18.314C71.2741 17.942 71.1541 17.486 71.1541 16.946C71.1541 16.298 71.3461 15.764 71.7301 15.344C72.1261 14.912 72.7441 14.612 73.5841 14.444L76.9861 13.742L76.9681 15.362L75.2401 15.722C74.8801 15.794 74.6101 15.902 74.4301 16.046C74.2621 16.178 74.1781 16.382 74.1781 16.658C74.1781 16.922 74.2741 17.12 74.4661 17.252C74.6581 17.384 74.8861 17.45 75.1501 17.45C75.3541 17.45 75.5461 17.42 75.7261 17.36C75.9181 17.3 76.0861 17.21 76.2301 17.09C76.3741 16.958 76.4881 16.796 76.5721 16.604C76.6561 16.412 76.6981 16.184 76.6981 15.92V13.544ZM84.8564 6.434V16.19C84.8564 16.586 84.9224 16.868 85.0544 17.036C85.1864 17.204 85.4084 17.288 85.7204 17.288C85.9004 17.288 86.0504 17.276 86.1704 17.252C86.2904 17.228 86.4344 17.192 86.6024 17.144L86.4044 18.98C86.1884 19.112 85.9064 19.22 85.5584 19.304C85.2104 19.388 84.8684 19.43 84.5324 19.43C83.5724 19.43 82.8764 19.208 82.4444 18.764C82.0124 18.32 81.7964 17.594 81.7964 16.586V6.434H84.8564ZM91.7234 10.07C92.6354 10.07 93.3914 10.202 93.9914 10.466C94.6034 10.718 95.0774 11.06 95.4134 11.492C95.7614 11.912 95.9774 12.368 96.0614 12.86L93.2354 13.796C93.1514 13.28 92.9954 12.896 92.7674 12.644C92.5514 12.38 92.2334 12.248 91.8134 12.248C91.4294 12.248 91.1054 12.338 90.8414 12.518C90.5894 12.686 90.3974 12.962 90.2654 13.346C90.1334 13.718 90.0674 14.198 90.0674 14.786C90.0674 15.374 90.1394 15.854 90.2834 16.226C90.4274 16.586 90.6314 16.85 90.8954 17.018C91.1594 17.174 91.4714 17.252 91.8314 17.252C92.1314 17.252 92.3774 17.198 92.5694 17.09C92.7734 16.97 92.9414 16.802 93.0734 16.586C93.2054 16.37 93.2894 16.106 93.3254 15.794L96.0794 16.676C95.9954 17.204 95.7674 17.678 95.3954 18.098C95.0354 18.506 94.5554 18.83 93.9554 19.07C93.3554 19.31 92.6534 19.43 91.8494 19.43C90.8654 19.43 90.0074 19.25 89.2754 18.89C88.5434 18.518 87.9794 17.984 87.5834 17.288C87.1874 16.58 86.9894 15.734 86.9894 14.75C86.9894 13.766 87.1874 12.926 87.5834 12.23C87.9794 11.522 88.5314 10.988 89.2394 10.628C89.9594 10.256 90.7874 10.07 91.7234 10.07Z" fill="#0D141C"/>
<defs>
<clipPath id="clip0_1_295">
<rect width="16" height="16" fill="white" transform="translate(0 3.5)"/>
</clipPath>
</defs>
</svg>
