<?xml version="1.0" encoding="UTF-8"?>
<svg xmlns="http://www.w3.org/2000/svg" xmlns:xlink="http://www.w3.org/1999/xlink" width="150px" height="35px" viewBox="0 0 149 35" version="1.1">
<g id="surface1">
<path style=" stroke:none;fill-rule:nonzero;fill:rgb(0%,0%,0%);fill-opacity:1;" d="M 5.558594 1.152344 C 3.929688 1.972656 2.890625 2.828125 2.074219 3.984375 C 0.40625 6.367188 0.0742188 7.597656 0.0351562 11.171875 L 0 14.296875 L 1.667969 12.660156 C 2.929688 11.429688 3.335938 10.722656 3.335938 9.867188 C 3.335938 8.488281 4.449219 5.996094 5.484375 5.101562 C 7.191406 3.539062 8.5625 3.386719 20.3125 3.351562 L 31.503906 3.351562 L 31.503906 10.277344 L 33.171875 11.914062 L 34.839844 13.554688 L 34.839844 0 L 7.894531 0 Z M 5.558594 1.152344 "/>
<path style=" stroke:none;fill-rule:nonzero;fill:rgb(0%,0%,0%);fill-opacity:1;" d="M 136.769531 16.195312 C 136.769531 23.71875 136.84375 24.945312 137.324219 24.945312 C 137.804688 24.945312 137.878906 23.71875 137.878906 16.195312 C 137.878906 8.675781 137.804688 7.445312 137.324219 7.445312 C 136.84375 7.445312 136.769531 8.675781 136.769531 16.195312 Z M 136.769531 16.195312 "/>
<path style=" stroke:none;fill-rule:nonzero;fill:rgb(0%,0%,0%);fill-opacity:1;" d="M 4.523438 13.515625 L 0 18.058594 L 0 26.996094 L 6.855469 20.105469 L 13.714844 13.21875 L 11.601562 11.097656 C 10.414062 9.902344 9.378906 8.9375 9.265625 8.9375 C 9.15625 8.9375 7.042969 10.984375 4.523438 13.515625 Z M 4.523438 13.515625 "/>
<path style=" stroke:none;fill-rule:nonzero;fill:rgb(0%,0%,0%);fill-opacity:1;" d="M 42.625 16.941406 L 42.625 24.945312 L 46.515625 24.945312 C 49.742188 24.945312 50.40625 24.835938 50.40625 24.386719 C 50.40625 23.941406 49.777344 23.828125 47.070312 23.828125 L 43.734375 23.828125 L 43.734375 17.128906 L 46.925781 17.128906 C 48.925781 17.128906 50 16.980469 49.851562 16.753906 C 49.742188 16.53125 48.296875 16.382812 46.664062 16.382812 L 43.734375 16.382812 L 43.734375 10.054688 L 47.070312 10.054688 C 49.777344 10.054688 50.40625 9.941406 50.40625 9.496094 C 50.40625 9.046875 49.742188 8.9375 46.515625 8.9375 L 42.625 8.9375 Z M 42.625 16.941406 "/>
<path style=" stroke:none;fill-rule:nonzero;fill:rgb(0%,0%,0%);fill-opacity:1;" d="M 100.074219 9.496094 C 100.074219 9.941406 100.554688 10.054688 102.113281 10.054688 L 104.152344 10.054688 L 104.152344 17.5 C 104.152344 23.867188 104.226562 24.945312 104.707031 24.945312 C 105.191406 24.945312 105.265625 23.867188 105.265625 17.5 L 105.265625 10.054688 L 107.300781 10.054688 C 108.859375 10.054688 109.339844 9.941406 109.339844 9.496094 C 109.339844 9.011719 108.5625 8.9375 104.707031 8.9375 C 100.851562 8.9375 100.074219 9.011719 100.074219 9.496094 Z M 100.074219 9.496094 "/>
<path style=" stroke:none;fill-rule:nonzero;fill:rgb(0%,0%,0%);fill-opacity:1;" d="M 10.082031 19.847656 L 0 29.972656 L 0 35 L 3.890625 35 L 24.648438 14.148438 L 22.425781 11.914062 L 20.199219 9.679688 Z M 10.082031 19.847656 "/>
<path style=" stroke:none;fill-rule:nonzero;fill:rgb(0%,0%,0%);fill-opacity:1;" d="M 18.71875 23.457031 L 7.226562 35 L 16.125 35 L 34.65625 16.382812 L 32.429688 14.148438 L 30.207031 11.914062 Z M 18.71875 23.457031 "/>
<path style=" stroke:none;fill-rule:nonzero;fill:rgb(0%,0%,0%);fill-opacity:1;" d="M 55.78125 12.734375 C 54.335938 13.589844 54.152344 14.222656 54.113281 18.503906 C 54.113281 22.378906 54.1875 22.75 55.003906 23.71875 C 55.78125 24.613281 56.191406 24.761719 58.523438 24.871094 C 60.75 25.019531 61.15625 24.945312 61.15625 24.425781 C 61.15625 23.941406 60.710938 23.828125 58.820312 23.828125 C 55.449219 23.828125 55.226562 23.496094 55.226562 18.578125 C 55.226562 16.457031 55.410156 14.445312 55.597656 14.148438 C 55.820312 13.777344 56.78125 13.515625 58.414062 13.402344 C 59.933594 13.292969 60.972656 13.03125 61.082031 12.734375 C 61.269531 12.136719 56.820312 12.136719 55.78125 12.734375 Z M 55.78125 12.734375 "/>
<path style=" stroke:none;fill-rule:nonzero;fill:rgb(0%,0%,0%);fill-opacity:1;" d="M 64.972656 13.179688 C 63.9375 14.074219 63.9375 14.113281 63.9375 18.542969 C 63.9375 22.378906 64.046875 23.121094 64.640625 23.792969 C 65.976562 25.28125 70.496094 25.28125 71.90625 23.753906 C 72.574219 23.046875 72.648438 22.414062 72.648438 18.765625 C 72.648438 16.457031 72.535156 14.296875 72.425781 13.960938 C 72.054688 12.996094 70.238281 12.289062 68.050781 12.289062 C 66.417969 12.289062 65.789062 12.472656 64.972656 13.179688 Z M 70.941406 14 C 71.421875 14.445312 71.535156 15.414062 71.535156 18.503906 C 71.535156 23.421875 71.273438 23.828125 68.160156 23.828125 C 65.195312 23.828125 64.863281 23.308594 64.863281 18.46875 C 64.863281 13.851562 65.160156 13.402344 68.234375 13.402344 C 69.679688 13.402344 70.570312 13.589844 70.941406 14 Z M 70.941406 14 "/>
<path style=" stroke:none;fill-rule:nonzero;fill:rgb(0%,0%,0%);fill-opacity:1;" d="M 76.351562 18.617188 C 76.351562 23.980469 76.425781 24.945312 76.910156 24.945312 C 77.390625 24.945312 77.464844 24.128906 77.464844 19.921875 C 77.464844 13.851562 77.6875 13.402344 80.949219 13.402344 C 84.027344 13.402344 84.136719 13.628906 84.136719 19.769531 C 84.136719 24.128906 84.210938 24.945312 84.691406 24.945312 C 85.175781 24.945312 85.25 24.128906 85.25 19.621094 C 85.210938 14.113281 85.101562 13.554688 83.507812 12.734375 C 82.359375 12.101562 79.246094 12.175781 78.28125 12.882812 C 77.539062 13.402344 77.464844 13.402344 77.464844 12.882812 C 77.464844 12.546875 77.207031 12.289062 76.910156 12.289062 C 76.425781 12.289062 76.351562 13.253906 76.351562 18.617188 Z M 76.351562 18.617188 "/>
<path style=" stroke:none;fill-rule:nonzero;fill:rgb(0%,0%,0%);fill-opacity:1;" d="M 89.882812 13.21875 C 88.992188 14.074219 88.957031 14.335938 88.957031 18.503906 C 88.992188 21.519531 89.140625 23.085938 89.472656 23.53125 C 90.511719 24.945312 93.550781 25.355469 95.8125 24.425781 C 97.480469 23.71875 97.960938 22.042969 97.8125 17.539062 C 97.664062 14.296875 97.589844 14.039062 96.628906 13.179688 C 95.773438 12.4375 95.183594 12.289062 93.179688 12.289062 C 91.105469 12.289062 90.660156 12.4375 89.882812 13.21875 Z M 96.144531 14.222656 C 96.589844 14.855469 96.738281 16.011719 96.738281 18.691406 C 96.738281 23.234375 96.332031 23.828125 93.253906 23.828125 C 90.289062 23.828125 90.066406 23.457031 90.066406 18.765625 C 90.066406 13.628906 90.214844 13.402344 93.21875 13.402344 C 95.257812 13.402344 95.664062 13.515625 96.144531 14.222656 Z M 96.144531 14.222656 "/>
<path style=" stroke:none;fill-rule:nonzero;fill:rgb(0%,0%,0%);fill-opacity:1;" d="M 112.789062 13.179688 C 111.75 14.074219 111.75 14.113281 111.75 18.542969 C 111.75 22.378906 111.859375 23.121094 112.453125 23.792969 C 113.789062 25.28125 118.308594 25.28125 119.71875 23.753906 C 120.386719 23.046875 120.460938 22.414062 120.460938 18.765625 C 120.460938 16.457031 120.347656 14.296875 120.238281 13.960938 C 119.867188 12.996094 118.050781 12.289062 115.863281 12.289062 C 114.234375 12.289062 113.601562 12.472656 112.789062 13.179688 Z M 118.753906 14 C 119.238281 14.445312 119.347656 15.414062 119.347656 18.503906 C 119.347656 23.421875 119.089844 23.828125 115.976562 23.828125 C 113.011719 23.828125 112.675781 23.308594 112.675781 18.46875 C 112.675781 13.851562 112.972656 13.402344 116.050781 13.402344 C 117.496094 13.402344 118.382812 13.589844 118.753906 14 Z M 118.753906 14 "/>
<path style=" stroke:none;fill-rule:nonzero;fill:rgb(0%,0%,0%);fill-opacity:1;" d="M 125.09375 13.21875 C 124.203125 14.074219 124.167969 14.335938 124.167969 18.503906 C 124.203125 21.519531 124.351562 23.085938 124.6875 23.53125 C 125.722656 24.945312 128.761719 25.355469 131.023438 24.425781 C 132.691406 23.71875 133.171875 22.042969 133.023438 17.539062 C 132.875 14.296875 132.804688 14.039062 131.839844 13.179688 C 130.988281 12.4375 130.394531 12.289062 128.390625 12.289062 C 126.316406 12.289062 125.871094 12.4375 125.09375 13.21875 Z M 131.355469 14.222656 C 131.800781 14.855469 131.949219 16.011719 131.949219 18.691406 C 131.949219 23.234375 131.542969 23.828125 128.464844 23.828125 C 125.5 23.828125 125.277344 23.457031 125.277344 18.765625 C 125.277344 13.628906 125.425781 13.402344 128.429688 13.402344 C 130.46875 13.402344 130.875 13.515625 131.355469 14.222656 Z M 131.355469 14.222656 "/>
<path style=" stroke:none;fill-rule:nonzero;fill:rgb(0%,0%,0%);fill-opacity:1;" d="M 142.03125 13.03125 C 140.992188 14 140.917969 16.085938 141.921875 17.089844 C 142.292969 17.460938 143.589844 18.171875 144.773438 18.617188 C 147.589844 19.660156 147.886719 19.921875 147.886719 21.558594 C 147.886719 23.53125 147.40625 23.828125 144.109375 23.828125 C 141.699219 23.828125 141.214844 23.941406 141.214844 24.425781 C 141.214844 24.945312 141.660156 25.019531 144.328125 24.910156 C 148.148438 24.722656 149 24.164062 149 21.78125 C 149 19.734375 148.332031 18.988281 145.183594 17.6875 C 143.21875 16.902344 142.625 16.457031 142.441406 15.710938 C 141.996094 13.851562 143.144531 13.144531 146.703125 13.070312 C 149.816406 12.996094 148.964844 12.289062 145.738281 12.289062 C 143.328125 12.289062 142.699219 12.398438 142.03125 13.03125 Z M 142.03125 13.03125 "/>
<path style=" stroke:none;fill-rule:nonzero;fill:rgb(0%,0%,0%);fill-opacity:1;" d="M 33.097656 21.296875 C 31.765625 22.710938 31.578125 23.160156 31.394531 25.097656 C 31.132812 27.589844 29.800781 29.863281 28.058594 30.792969 C 27.429688 31.089844 25.980469 31.460938 24.796875 31.539062 C 22.867188 31.722656 22.5 31.910156 21.089844 33.363281 L 19.496094 35 L 23.054688 35 C 28.503906 35 31.765625 33.324219 33.582031 29.527344 C 34.433594 27.8125 34.617188 26.847656 34.765625 23.605469 C 34.878906 21.484375 34.878906 19.734375 34.765625 19.734375 C 34.691406 19.734375 33.953125 20.441406 33.097656 21.296875 Z M 33.097656 21.296875 "/>
</g>
</svg>
